<svg xmlns="http://www.w3.org/2000/svg" viewBox="0 0 512 496"><defs><style>.comp-1{fill:#ff405f;}.comp-2{fill:#0094e2;}.comp-3{fill:#e0e0e0;}.comp-4{fill:#f1f1f1;}</style></defs><title>Ресурс 3</title><g id="Слой_2" data-name="Слой 2"><g id="Layer_1" data-name="Layer 1"><path class="comp-1" d="M473.8,0H28.1a28.05,28.05,0,1,0,0,56.1H473.8L512,28Z"/><path class="comp-1" d="M256,0H28.1a28.05,28.05,0,1,0,0,56.1H256Z"/><path class="comp-2" d="M512,461a35,35,0,0,1-35,35H35A35,35,0,0,1,0,461V139a35,35,0,0,1,35-35H477a35,35,0,0,1,35,35Z"/><path class="comp-2" d="M256,104H35A35,35,0,0,0,0,139V461a35,35,0,0,0,35,35H256Z"/><rect class="comp-3" x="115" y="169" width="332" height="262"/><rect class="comp-4" x="115" y="169" width="141" height="262"/><circle class="comp-4" cx="57.5" cy="300" r="22.2" transform="translate(-244.25 347.48) rotate(-88.09)"/><rect class="comp-4" x="35.3" y="222.6" width="44.3" height="31.3"/><rect class="comp-4" x="35.3" y="172.6" width="44.3" height="31.3"/><rect class="comp-4" x="35.3" y="396.1" width="44.3" height="31.3"/><rect class="comp-4" x="35.3" y="346.1" width="44.3" height="31.3"/></g></g></svg>