<svg xmlns="http://www.w3.org/2000/svg" viewBox="0 0 512 299.2"><defs><style>.moving-1{fill:#68edff;}.moving-2{fill:#00a3ff;}.moving-3{fill:#ffdc3e;}.moving-4{fill:#ffae23;}.moving-5{fill:#2c3c7e;}.moving-6{fill:#17ceff;}</style></defs><title>Ресурс 1</title><g id="Слой_2" data-name="Слой 2"><g id="Layer_1" data-name="Layer 1"><path class="moving-1" d="M497,266.7H319a15,15,0,0,1-15-15V73.7a15,15,0,0,1,15-15h86.1a15,15,0,0,1,10.6,4.4L507.6,155a15,15,0,0,1,4.4,10.6v86.1A15,15,0,0,1,497,266.7Z"/><path class="moving-2" d="M304,165.6v86.1a15,15,0,0,0,15,15H497a15,15,0,0,0,15-15V165.6H304Z"/><path class="moving-3" d="M167,.4,326.8,0a.37.37,0,0,1,.3.1A15,15,0,0,1,334,12.7V266.6H15.6A15.62,15.62,0,0,1,0,251V12.8A14.89,14.89,0,0,1,6.9.2.37.37,0,0,1,7.2.1L167,.4c.1,0-7.9.3-7.8.2"/><path class="moving-4" d="M167,.4V266.7H334V12.8A15,15,0,0,0,327,.1"/><path class="moving-5" d="M408,299.2a47.5,47.5,0,1,1,47.5-47.5A47.54,47.54,0,0,1,408,299.2Z"/><path class="moving-5" d="M154.5,299.2A47.5,47.5,0,1,1,202,251.7,47.54,47.54,0,0,1,154.5,299.2Z"/><path class="moving-6" d="M202.5,170.5h-71a15,15,0,0,1-15-15v-71a15,15,0,0,1,15-15h71a15,15,0,0,1,15,15v71A15,15,0,0,1,202.5,170.5Z"/><path class="moving-2" d="M202.5,69.5H167v101h35.5a15,15,0,0,0,15-15v-71A15,15,0,0,0,202.5,69.5Z"/></g></g></svg>